<svg width="390" height="690" viewBox="0 0 390 690" fill="none" xmlns="http://www.w3.org/2000/svg">
<g filter="url(#filter0_i)">
<rect x="-1" width="392" height="856" rx="20" fill="#FFEFEF"/>
</g>
<rect x="-0.5" y="0.5" width="391" height="855" rx="19.5" stroke="#FC9090" stroke-opacity="0.3"/>
<path d="M241.969 174.051C271.518 36.9102 93.89 5.57428 1.38232 7.04891V831H148.13C162.605 765.195 140.144 790.632 133.655 732.015C127.166 673.399 253.948 655.15 313.346 605.381C372.744 555.612 313.346 492.572 270.42 436.167C227.494 379.762 205.032 345.477 241.969 174.051Z" fill="url(#paint0_linear)" fill-opacity="0.3"/>
<path d="M123.451 281.26C78.1293 103.975 -163.714 184.28 -278.971 246.593L216.216 1195.41L400.457 1099.25C379.082 1013.99 366.169 1058 322.795 994.75C279.42 931.502 427.627 827.415 472.29 731.184C516.953 634.953 404.492 601.28 316.7 564.454C228.908 527.629 180.103 502.866 123.451 281.26Z" fill="url(#paint1_linear)" fill-opacity="0.5"/>
<defs>
<filter id="filter0_i" x="-1" y="0" width="392" height="860" filterUnits="userSpaceOnUse" color-interpolation-filters="sRGB">
<feFlood flood-opacity="0" result="BackgroundImageFix"/>
<feBlend mode="normal" in="SourceGraphic" in2="BackgroundImageFix" result="shape"/>
<feColorMatrix in="SourceAlpha" type="matrix" values="0 0 0 0 0 0 0 0 0 0 0 0 0 0 0 0 0 0 127 0" result="hardAlpha"/>
<feOffset dy="4"/>
<feGaussianBlur stdDeviation="2"/>
<feComposite in2="hardAlpha" operator="arithmetic" k2="-1" k3="1"/>
<feColorMatrix type="matrix" values="0 0 0 0 0 0 0 0 0 0 0 0 0 0 0 0 0 0 0.25 0"/>
<feBlend mode="normal" in2="shape" result="effect1_innerShadow"/>
</filter>
<linearGradient id="paint0_linear" x1="169.882" y1="7" x2="169.882" y2="831" gradientUnits="userSpaceOnUse">
<stop stop-color="#FCC5C5"/>
<stop offset="1" stop-color="#FCC5C5" stop-opacity="0"/>
</linearGradient>
<linearGradient id="paint1_linear" x1="-67.4493" y1="136.128" x2="427.767" y2="1085" gradientUnits="userSpaceOnUse">
<stop stop-color="#FFD0D0"/>
<stop offset="0.836458" stop-color="#FCFEFF"/>
<stop offset="0.9999" stop-color="#FCFEFF"/>
<stop offset="1" stop-color="white"/>
</linearGradient>
</defs>
</svg>
