<svg width="360" height="801" viewBox="0 0 360 801" fill="none" xmlns="http://www.w3.org/2000/svg">
<path d="M8 195H353" stroke="#D6D6D6" stroke-width="2" stroke-linecap="round" stroke-linejoin="round" stroke-dasharray="9 9"/>
<path d="M0 35C0 15.67 15.67 0 35 0V801C15.67 801 0 785.33 0 766V35Z" fill="#514E6D"/>
<path d="M-10.4229 167L13.6188 191.042C15.5714 192.994 15.5714 196.16 13.6188 198.113L-10.4229 222.154L-38 194.577L-10.4229 167Z" fill="#FEFFFF"/>
<path d="M325 0C344.33 0 360 15.67 360 35V766C360 785.33 344.33 801 325 801V0Z" fill="#514E6D"/>
<path d="M369.577 167L393.619 191.042C395.571 192.994 395.571 196.16 393.619 198.113L369.577 222.154L345.536 198.113C343.583 196.16 343.583 192.994 345.536 191.042L369.577 167Z" fill="#FEFFFF"/>
</svg>
