<svg width="360" height="801" viewBox="0 0 360 801" fill="none" xmlns="http://www.w3.org/2000/svg">
<path d="M0 35C0 15.67 15.67 0 35 0V801C15.67 801 0 785.33 0 766V35Z" fill="#514E6D"/>
<path d="M325 0C344.33 0 360 15.67 360 35V766C360 785.33 344.33 801 325 801V0Z" fill="#514E6D"/>
<path d="M7 118H352" stroke="#D6D6D6" stroke-width="2" stroke-linecap="round" stroke-linejoin="round" stroke-dasharray="9 9"/>
<path d="M-10.4229 90L13.6188 114.042C15.5714 115.994 15.5714 119.16 13.6188 121.113L-10.4229 145.154L-38 117.577L-10.4229 90Z" fill="#FEFFFF"/>
<path d="M369.577 90L393.619 114.042C395.571 115.994 395.571 119.16 393.619 121.113L369.577 145.154L345.536 121.113C343.583 119.16 343.583 115.994 345.536 114.042L369.577 90Z" fill="#FEFFFF"/>
</svg>
