<svg id="Layer_1" data-name="Layer 1" xmlns="http://www.w3.org/2000/svg" viewBox="0 0 256 256">
    <defs>
        <style>.cls-1{fill:none;stroke:currentColor;stroke-linecap:round;stroke-linejoin:round;stroke-width:12px;}</style>
    </defs>
    <path class="cls-1" d="M194.64,223.83c-9,.43-18.79.1-22.74,0a11.78,11.78,0,0,1-5.24-1.28c-3.55-1.83-8.59-6.18-8.59-16.19V174.27a40.84,40.84,0,0,0-2.29-13.73c-3.17-8.88-10.54-20.71-27.28-20.71s-24.11,11.83-27.28,20.71a40.84,40.84,0,0,0-2.29,13.73V206.4c0,10-5,14.36-8.59,16.19a11.78,11.78,0,0,1-5.24,1.28c-3.95.06-13.7.39-22.74,0-12-.57-11.43-13.71-11.43-13.71v-82c0-8.68,6.1-14.71,8-16.39.46-.4.9-.81,1.34-1.24,6.71-6.64,54.86-54.26,61.51-60.37a9.19,9.19,0,0,1,13.42,0c6.65,6.11,54.8,53.73,61.51,60.37.44.43.88.84,1.34,1.24,1.91,1.68,8,7.71,8,16.39v82S206.68,223.26,194.64,223.83Z" />
</svg>