<svg width="390" height="690" viewBox="0 0 390 690" fill="none" xmlns="http://www.w3.org/2000/svg">
<rect x="0.5" y="0.5" width="389" height="855" rx="19.5" fill="#EFF8FF" stroke="#90CEFC"/>
<path d="M241.3 179.807C270.937 45.3295 22 -34 0 15.4998V824H147.183C161.701 759.472 139.173 784.415 132.665 726.937C126.157 669.459 253.315 651.564 312.889 602.762C372.464 553.959 312.889 492.143 269.836 436.834C226.782 381.524 204.254 347.905 241.3 179.807Z" fill="url(#paint0_linear)" fill-opacity="0.3"/>
<path d="M123.451 274.26C78.1293 96.9751 -163.714 177.28 -278.971 239.593L216.216 1188.41L400.457 1092.25C379.082 1006.99 366.169 1051 322.795 987.75C279.42 924.502 427.627 820.415 472.29 724.184C516.953 627.953 404.492 594.28 316.7 557.454C228.908 520.629 180.103 495.866 123.451 274.26Z" fill="url(#paint1_linear)" fill-opacity="0.5"/>
<defs>
<linearGradient id="paint0_linear" x1="169" y1="15.998" x2="169" y2="823.998" gradientUnits="userSpaceOnUse">
<stop stop-color="#C5E4FC"/>
<stop offset="1" stop-color="#C5E4FC" stop-opacity="0"/>
</linearGradient>
<linearGradient id="paint1_linear" x1="-67.4493" y1="129.128" x2="427.767" y2="1078" gradientUnits="userSpaceOnUse">
<stop stop-color="#D0ECFF"/>
<stop offset="0.836458" stop-color="#FCFEFF"/>
<stop offset="0.9999" stop-color="#FCFEFF"/>
<stop offset="1" stop-color="white"/>
</linearGradient>
</defs>
</svg>
