<svg width="24" height="27" viewBox="0 0 24 27" fill="none" xmlns="http://www.w3.org/2000/svg">
<path d="M18 11C18 9.4087 17.3679 7.88258 16.2426 6.75736C15.1174 5.63214 13.5913 5 12 5C10.4087 5 8.88258 5.63214 7.75736 6.75736C6.63214 7.88258 6 9.4087 6 11C6 18 3 20 3 20H21C21 20 18 18 18 11Z" stroke="white" stroke-width="2" stroke-linecap="round" stroke-linejoin="round"/>
<path d="M13.73 24C13.5542 24.3031 13.3019 24.5547 12.9982 24.7295C12.6946 24.9044 12.3504 24.9965 12 24.9965C11.6496 24.9965 11.3054 24.9044 11.0018 24.7295C10.6982 24.5547 10.4458 24.3031 10.27 24" stroke="white" stroke-width="2" stroke-linecap="round" stroke-linejoin="round"/>
<circle cx="17.5" cy="3.5" r="3.5" fill="#F80000"/>
</svg>
