<svg width="390" height="692" viewBox="0 0 390 692" fill="none" xmlns="http://www.w3.org/2000/svg">
<g filter="url(#filter0_i)">
<rect x="-1" width="392" height="856" rx="20" fill="#F1EFFF"/>
</g>
<rect x="-0.5" y="0.5" width="391" height="855" rx="19.5" stroke="#9990FC"/>
<path d="M241.969 176.051C271.518 38.9102 93.89 7.57428 1.38232 9.04891V833H148.13C162.605 767.195 140.144 792.632 133.655 734.015C127.166 675.399 253.948 657.15 313.346 607.381C372.744 557.612 313.346 494.572 270.42 438.167C227.494 381.762 205.032 347.477 241.969 176.051Z" fill="url(#paint0_linear)" fill-opacity="0.3"/>
<path d="M123.451 283.26C78.1293 105.975 -163.714 186.28 -278.971 248.593L216.216 1197.41L400.457 1101.25C379.082 1015.99 366.169 1060 322.795 996.75C279.42 933.502 427.627 829.415 472.29 733.184C516.953 636.953 404.492 603.28 316.7 566.454C228.908 529.629 180.103 504.866 123.451 283.26Z" fill="url(#paint1_linear)" fill-opacity="0.5"/>
<defs>
<filter id="filter0_i" x="-1" y="0" width="392" height="860" filterUnits="userSpaceOnUse" color-interpolation-filters="sRGB">
<feFlood flood-opacity="0" result="BackgroundImageFix"/>
<feBlend mode="normal" in="SourceGraphic" in2="BackgroundImageFix" result="shape"/>
<feColorMatrix in="SourceAlpha" type="matrix" values="0 0 0 0 0 0 0 0 0 0 0 0 0 0 0 0 0 0 127 0" result="hardAlpha"/>
<feOffset dy="4"/>
<feGaussianBlur stdDeviation="2"/>
<feComposite in2="hardAlpha" operator="arithmetic" k2="-1" k3="1"/>
<feColorMatrix type="matrix" values="0 0 0 0 0 0 0 0 0 0 0 0 0 0 0 0 0 0 0.25 0"/>
<feBlend mode="normal" in2="shape" result="effect1_innerShadow"/>
</filter>
<linearGradient id="paint0_linear" x1="169.882" y1="9" x2="169.882" y2="833" gradientUnits="userSpaceOnUse">
<stop stop-color="#C5C7FC"/>
<stop offset="1" stop-color="#C6C5FC" stop-opacity="0"/>
</linearGradient>
<linearGradient id="paint1_linear" x1="-67.4493" y1="138.128" x2="427.767" y2="1087" gradientUnits="userSpaceOnUse">
<stop stop-color="#D0D2FF"/>
<stop offset="0.836458" stop-color="#FCFEFF"/>
<stop offset="0.9999" stop-color="#FCFEFF"/>
<stop offset="1" stop-color="white"/>
</linearGradient>
</defs>
</svg>
